PathFileType	4	(X/Y/Z)	70_1_4_p0_0-205.trc
DataRate	CameraRate	NumFrames	NumMarkers	Units	OrigDataRate	OrigDataStartFrame	OrigNumFrames
59.0	59.0	7	27	m	59.0	103	206
Frame#	Time	RHip			RKnee			RAnkle			RBigToe			RSmallToe			RHeel			LHip			LKnee			LAnkle			LBigToe			LSmallToe			LHeel			Neck			Head			Nose			RShoulder			RElbow			RWrist			RThumb			RIndex			RPinky			LShoulder			LElbow			LWrist			LThumb			LIndex			LPinky			
		X1	Y1	Z1	X2	Y2	Z2	X3	Y3	Z3	X4	Y4	Z4	X5	Y5	Z5	X6	Y6	Z6	X7	Y7	Z7	X8	Y8	Z8	X9	Y9	Z9	X10	Y10	Z10	X11	Y11	Z11	X12	Y12	Z12	X13	Y13	Z13	X14	Y14	Z14	X15	Y15	Z15	X16	Y16	Z16	X17	Y17	Z17	X18	Y18	Z18	X19	Y19	Z19	X20	Y20	Z20	X21	Y21	Z21	X22	Y22	Z22	X23	Y23	Z23	X24	Y24	Z24	X25	Y25	Z25	X26	Y26	Z26	X27	Y27	Z27	
103	1.7457627118644068	0.37078473393722083	0.5058001842570168	0.09138448845766978	0.3618772653764334	0.6828437237476799	0.4853768200597314	0.3616468935208516	0.8131674961201103	0.9039108249407373	0.32015223631397677	0.6398246037847916	1.0036752220676621	0.39073275789111067	0.6419560724224179	0.9859115341915291	0.34845744860283007	0.9194817519193266	0.9836706774371425	0.1336789493186205	0.5777075322949717	0.07633150154198949	0.15853757197551446	0.7011358301394502	0.48949906195515436	0.1682336518356486	0.8258186724337672	0.899208099268227	0.16791132509071438	0.6572785062956805	0.9985075546463067	0.11371413180559581	0.7006598976222919	0.9784619264171698	0.18996131184203194	0.8827160628762484	0.9384171371869771	0.2418648806471705	0.4044983503321778	-0.5633403485558979	0.22762964577498254	0.3318390228763591	-0.8231219940753215	0.22598247941751928	0.30019606792864834	-0.6778983995132739	0.4305938266349141	0.42626608291051865	-0.4684920059570453	0.49452303927391966	0.4424258879184693	-0.16651924525543635	0.47264075599815136	0.436262497136221	0.11831246610432039	0.4081296622180782	0.43311083322654215	0.24599277218210117	0.4241301495912219	0.4188355538970649	0.2668588447070236	0.4554523993013971	0.4293443176440445	0.2687326997611662	0.07784934096814915	0.5001814995323557	-0.46538598705044076	0.00487544278859143	0.5613401541283419	-0.1793265232545205	-0.01824886263333446	0.5107581732231782	0.11206828962468211	0.04259217983189831	0.5274723014017973	0.21717877288883303	0.017692217438553613	0.46627104679088843	0.22304756209873203	-0.017249324312783906	0.5507439718683144	0.2325475284933713
104	1.7627118644067796	0.3704546553453599	0.5066240084326253	0.0951925518399317	0.36185062444199323	0.6829151152607809	0.4854535494423759	0.3616861494713461	0.8132924432522394	0.9039850610099742	0.3141368283310813	0.6264157521391583	0.9987474203718409	0.3886221852380016	0.6585750363620781	0.9916857911016537	0.3540486818075788	0.9367254290378244	0.9943363731797195	0.1368366903235011	0.5629849763967807	0.07524230782135577	0.15852643288309978	0.7011208797819716	0.4894969382345158	0.16529301019163506	0.8423010589656631	0.9042641052572101	0.1678902030488489	0.6573568856127106	0.9983585087648895	0.11059698297191366	0.7162630210253529	0.9838825515329186	0.1900689851329487	0.882927811769744	0.9383572403465721	0.24186476435886503	0.40448319601014	-0.5633614003506425	0.22761996394784584	0.33171321816592414	-0.8231414939887165	0.22376092504388526	0.3123518388473986	-0.6800974867453704	0.4305873378123352	0.4261343107293469	-0.4685059980650461	0.4944337474310413	0.44209639963194036	-0.16647204313884736	0.47267566301893577	0.4362611564872741	0.11837394256047797	0.40813338236499414	0.4330042525677645	0.246055401360134	0.42410082559350365	0.41871501356430674	0.26686433791867836	0.4554102592725508	0.4292043612698906	0.2687778607123659	0.07785555650310258	0.5002053652292259	-0.465361054399264	0.004418612237148643	0.5595202965173556	-0.18303667620819986	-0.021836328155740794	0.5241333721442082	0.11309583324166275	0.042454237674929694	0.5272210360481128	0.21722659865334837	0.01748795233996624	0.4661116535694473	0.2229137609762463	-0.017730956866624455	0.5501421054027171	0.23221979613010596
105	1.7796610169491525	0.3707847294976612	0.5056769254725355	0.09119752717391051	0.361869991046668	0.6826031490146243	0.4853466907661562	0.3616494684000282	0.8132699558916153	0.9039039169596745	0.3202994149752163	0.6401480993298919	1.0034714822306503	0.3888430978599206	0.6588337462670659	0.9916526985385414	0.35400626923086115	0.9367290114733149	0.9942738161818205	0.1369398318491892	0.5626826868490417	0.07523832051149044	0.1591783059175761	0.6998207946967898	0.48552497406313255	0.16525891746988447	0.8421729287747501	0.9042890112939297	0.1678471583138766	0.6572821113863837	0.9985379724761516	0.11342709784045021	0.7013597564109113	0.974422444294215	0.18912505581982242	0.8842329096284041	0.9440986442004529	0.24185871252277474	0.40445734198213	-0.563122801244439	0.22761974836918983	0.3317377041655471	-0.8231514975547995	0.22377045800737566	0.312395512250418	-0.6800834404877899	0.4306172644453293	0.4262455150054996	-0.4684226852313007	0.49444708660741205	0.4419943381397794	-0.16637946282428168	0.4786991672471457	0.44673336462677604	0.11523810827382809	0.4102620830946372	0.4186087736596023	0.247676917955467	0.42531463596565333	0.4200185423148621	0.2706996825611301	0.4558049485940954	0.42831842312303614	0.26497766356684016	0.07784124894834024	0.5001936456273619	-0.46529959302536644	0.004409680465786195	0.5595858695050672	-0.18306711149842164	-0.022212101002932267	0.5245602246516359	0.11309273561107946	0.04240566285764008	0.5268731046830472	0.2171851998635632	0.014404446992033608	0.47896497998250526	0.224479012771908	-0.017474968812341923	0.5502052158083834	0.23250527311814806
106	1.7966101694915255	0.37070113329825277	0.505606722345442	0.09134746460247481	0.3618876967964514	0.6825730510627868	0.4852912735882285	0.36159944645248443	0.8131642335909726	0.903787358476365	0.32030689690682174	0.6399142425137065	1.0034722501592863	0.3889308164901729	0.658860215321759	0.9917459112164376	0.3460289656084248	0.9185495939234013	0.9838000321256076	0.13685172560691114	0.5627934802301896	0.07515971296437901	0.15853660636332342	0.7008095672964155	0.4894816433392821	0.16522095272575155	0.8421945018469463	0.9043529713783122	0.167854964218366	0.657319650253366	0.9984766390559626	0.11024998610705937	0.7171083712686661	0.9799443615660477	0.18911417501410185	0.8841184870558695	0.9440427265409037	0.24187842079487035	0.40457099511804856	-0.5630401839135072	0.22762584372814262	0.33175659576450034	-0.8231566470729977	0.2237948692150693	0.31237573184786815	-0.6800815027398633	0.430648277970979	0.42640999238029154	-0.4684250233795195	0.49427016672202423	0.44189775167923695	-0.1664376519297146	0.4788568972685419	0.4468821353862815	0.11517361554775941	0.41027132477082845	0.41908981960400865	0.24415530184700682	0.42834382710753305	0.4195871937455107	0.2668303784848146	0.4557661613659163	0.42811339147638744	0.2648599761947697	0.07789959251262696	0.5002385248915884	-0.4653300430684595	0.0044325930130343855	0.5595227285510271	-0.18311274550112797	-0.022572807608162788	0.5243419382770041	0.11308662607521108	0.038333008880300765	0.5148801131276475	0.2161126828336786	0.009801492262588911	0.4766398785988735	0.2242602981944981	-0.018237171660304894	0.5508406623648694	0.2360049313765853
107	1.8135593220338984	0.37063441817591103	0.5064605866157642	0.09919747925699743	0.3689548702591126	0.6978633689754128	0.4922916045041084	0.3615902337841405	0.8132051038899564	0.9038650653852893	0.3202983374317095	0.6403554345392639	1.0035344347589268	0.38457878170845555	0.658493230202338	0.9912882098549083	0.34844647491171754	0.9196641327255484	0.9835761570779382	0.1325189447282526	0.5629807138058287	0.08257171031718744	0.15852995975715964	0.7011881783395841	0.48940630503828547	0.16823874755310778	0.8257205599100078	0.8990452319210303	0.16788353586875296	0.6579612728947705	0.9985697021903771	0.11032917636552633	0.7178828510393062	0.9800556451331239	0.19031991042014323	0.8829721931221695	0.938037183741716	0.24185409953388365	0.4045452319245572	-0.5630301961006854	0.22761770548571722	0.33169346708343683	-0.8231110440181126	0.22381308747091613	0.31239384407660936	-0.680066441999369	0.4306032307164684	0.42642722107227465	-0.4684820166399496	0.49446438231712625	0.4418257694615119	-0.16631724680730772	0.47855118937008717	0.4477333731622198	0.11928685973861908	0.414269983782607	0.4193307145910177	0.24425415841932535	0.4285093428676769	0.4198707364169096	0.2669225855358755	0.4602260404704564	0.4308238316421154	0.2690696831777261	0.07754888797717287	0.4986561137704364	-0.4685714924193447	0.004418527029840861	0.5594377083736143	-0.18304295027296008	-0.026429865916869143	0.5227954043427063	0.11309105197505633	0.03782188204449723	0.5156975412983787	0.2197221847660661	0.012879601426783582	0.46616942993270405	0.22966865781295334	-0.018514525692089934	0.5503878813053152	0.2323367661536273
108	1.8305084745762712	0.370467743150977	0.5068032302347275	0.09530693249958681	0.36278964098403893	0.6849171401412146	0.48622695895738355	0.3615900432866627	0.8129711809252381	0.9038520204644762	0.3199192993916769	0.6402079824288857	1.003625464688265	0.3841311259813122	0.6584305071361183	0.9908069016978422	0.34697288054438985	0.9170488774883153	0.9783448897193348	0.1328251961791448	0.5624067930267884	0.07543815296518072	0.15874704106139392	0.7004802921006994	0.4930019026129737	0.16824489292270625	0.8256419055570317	0.8991368963315676	0.16787867532749012	0.6579299339619835	0.9986807619213917	0.11114342640772301	0.7164649768993959	0.9761244428329154	0.1951394078651887	0.8863723574699581	0.9396668716713367	0.24187496901223596	0.40466587687353417	-0.5632732166062119	0.22759772915270293	0.3317103628856247	-0.8232079117028113	0.22602391559833512	0.30028323961008724	-0.677783480763771	0.430611791372445	0.4271395904960753	-0.4654407180192132	0.4945625475517215	0.44235739676117763	-0.16643779157471272	0.4785176286642594	0.4476884231822857	0.11925404491783993	0.41996054489776924	0.4301826395906827	0.2455466688046272	0.4336965255797563	0.4222741430108529	0.27092749401030897	0.4607629788977505	0.43063962069266676	0.2654337324528836	0.07781379032677908	0.500118624451661	-0.46511017047463665	0.004400643989255328	0.5595447763455038	-0.18274804815440954	-0.02665869372366054	0.5230681497892592	0.11320761870958544	0.041565197395153755	0.5281642906918568	0.21713464526359613	0.009986038651275233	0.4793379147462751	0.2312983391878642	-0.018587006399421083	0.5504412849042849	0.23243870710789352
109	1.847457627118644	0.36985567073492553	0.5049174600554102	0.09535979980283556	0.3629928288735699	0.6844554473504343	0.4898190070802994	0.36167554542662717	0.8132705253492849	0.9039421082256699	0.31978292428689825	0.6398075900374381	1.0038197419082089	0.384136261719671	0.658248773508844	0.9910797149100922	0.3468778955721496	0.9169996828786394	0.9782112940567279	0.13612592911513605	0.5476828947077639	0.07806458148825637	0.15876870575198798	0.7003373694492736	0.4930536757143721	0.16824836410661587	0.8257174591607813	0.8991475243472984	0.16788475068824316	0.6579434080965003	0.9987545088991344	0.11032398916725972	0.7179743371841438	0.9800825579555598	0.19388450517911082	0.8840134536770593	0.9350999041873505	0.2418533685352919	0.40461774452111515	-0.5631195910412433	0.22760162943031725	0.33170587713619587	-0.8231674602836481	0.22817973535608113	0.32291167271375437	-0.6822481880946796	0.4306129244006607	0.42713753276853184	-0.46543300946910027	0.49444251625344415	0.4423617563529059	-0.1665316052362133	0.4785365240636838	0.4477628579870461	0.11929230138754059	0.4200768323579303	0.42973478599613363	0.24566256555179242	0.433797721068811	0.4221279996564207	0.2709690812813014	0.46051667183079187	0.43197522470039784	0.2692764436954571	0.07779636943451664	0.500124351672114	-0.46509595341997473	0.004649840137947197	0.5596987377003901	-0.17875410326973787	-0.026638748899805994	0.5237683678788985	0.11339376754920055	0.041677784116743034	0.5289727503542722	0.22113122451248793	0.010723053053997867	0.4822079796385209	0.23549321581576108	-0.025333901629872202	0.5650491741212667	0.23824235257272447
